<svg xmlns="http://www.w3.org/2000/svg" fill="none" viewBox="0 0 448 153"><mask id="a" width="93.961" height="95.412" x="364.096" y="50.798" fill="#000" maskUnits="userSpaceOnUse"><path fill="#fff" d="M364.096 50.798h93.961v95.412h-93.961z"/><path d="m423.452 125.166-1.118.281c-21.132 5.322-35.378-6.435-38.942-20.585-3.352-13.313 2.534-29.645 23.759-34.99 23.087-5.814 29.292 14.502 30.066 17.574 1.078 4.282.201 8.265-4.823 11.51-4 2.592-10.631 5.351-15.425 6.756-1.49.375-2.12-.159-2.773-1.183-1.891-2.791-5.184-8.396-5.277-8.769-.258-1.024.369-1.677 1.509-2.26 4.56-2.337 5.164-2.687 4.836-3.99-.211-.838-2.73-3.372-6.64-2.387-4.468 1.125-7.207 5.973-5.754 11.745 1.665 6.609 8.381 12.838 20.018 9.907.651-.164 1.396-.352 2.024-.609l.187-.047c1.303-.328 3.097.111 3.495 1.694.234.931-.592 7.871-1.191 11.388-.37 1.677-1.252 3.285-3.951 3.965"/></mask><path fill="#BEA5A8" d="m423.452 125.166-1.118.281c-21.132 5.322-35.378-6.435-38.942-20.585-3.352-13.313 2.534-29.645 23.759-34.99 23.087-5.814 29.292 14.502 30.066 17.574 1.078 4.282.201 8.265-4.823 11.51-4 2.592-10.631 5.351-15.425 6.756-1.49.375-2.12-.159-2.773-1.183-1.891-2.791-5.184-8.396-5.277-8.769-.258-1.024.369-1.677 1.509-2.26 4.56-2.337 5.164-2.687 4.836-3.99-.211-.838-2.73-3.372-6.64-2.387-4.468 1.125-7.207 5.973-5.754 11.745 1.665 6.609 8.381 12.838 20.018 9.907.651-.164 1.396-.352 2.024-.609l.187-.047c1.303-.328 3.097.111 3.495 1.694.234.931-.592 7.871-1.191 11.388-.37 1.677-1.252 3.285-3.951 3.965"/><path fill="#BEA5A8" d="m432.394 98.956-5.426-8.4-.011.008zm-15.425 6.756 2.442 9.697.186-.047.184-.054zm-2.773-1.183 8.427-5.383-.073-.114-.075-.112zm-3.768-11.03-4.56-8.9zm14.484 14.667-2.442-9.697-.689.174-.657.269zm2.491 13.035 9.766 2.152.051-.235.041-.237zm-6.393-5.733-1.118.282 4.884 19.394 1.118-.281zm-1.118.282c-8.238 2.074-14.288.675-18.421-1.838-4.266-2.594-7.2-6.801-8.381-11.492l-19.395 4.884c2.382 9.459 8.353 18.205 17.385 23.697 9.164 5.572 20.802 7.39 33.696 4.143zm-26.802-13.33c-1.117-4.434-.634-9.13 1.624-13.039 2.17-3.755 6.509-7.704 14.879-9.811l-4.884-19.395c-12.855 3.237-22.071 10.128-27.313 19.202-5.153 8.922-5.937 19.048-3.701 27.927zm16.503-22.85c7.95-2.003 11.612.454 13.735 2.672 2.776 2.9 3.973 6.776 4.192 7.646l19.394-4.884c-.554-2.202-2.847-10.02-9.139-16.592-6.945-7.255-17.929-12.049-33.066-8.237zm17.927 10.318c.104.414.105.604.105.618 0 .003 0-.037.013-.11s.036-.163.071-.26c.079-.215.165-.309.131-.27-.05.059-.283.31-.872.69l10.852 16.8c3.887-2.51 7.033-5.894 8.659-10.312 1.604-4.361 1.305-8.585.435-12.04zm-.563.675c-2.951 1.912-8.619 4.327-12.801 5.553l5.625 19.192c5.406-1.584 13.001-4.688 18.05-7.959zm-12.43 5.452c.654-.165 2.798-.534 5.247.703a8 8 0 0 1 2.259 1.686c.212.229.361.42.449.54.088.118.137.195.141.202l-16.855 10.766c.525.821 2.05 3.174 4.995 4.66 3.3 1.666 6.504 1.377 8.648.837zm7.948 2.905c-.781-1.152-1.959-3.053-3.002-4.803-.51-.855-.949-1.608-1.251-2.144a26 26 0 0 1-.286-.515c-.023-.044.006.008.059.119.025.053.089.189.167.375.034.082.268.627.454 1.366l-19.395 4.885c.193.763.438 1.341.49 1.465.096.23.184.419.239.534.113.235.224.449.303.599.167.316.363.67.559 1.016.4.708.92 1.6 1.482 2.542 1.099 1.843 2.513 4.14 3.623 5.779zm-3.859-5.602c.238.944.361 2.187.097 3.59a8.6 8.6 0 0 1-1.5 3.471 7.6 7.6 0 0 1-1.585 1.611c-.357.264-.61.394-.64.409l-9.12-17.8c-1.004.515-3.123 1.69-4.783 3.952-2.088 2.848-2.695 6.348-1.864 9.651zm-3.628 9.081c1.752-.898 4.25-2.126 5.927-3.464 1.072-.855 2.948-2.6 3.887-5.5.942-2.911.408-5.38.159-6.368l-19.394 4.885c-.085-.337-.571-2.272.207-4.678.776-2.396 2.278-3.662 2.669-3.974.364-.29.501-.325-.116.015-.535.295-1.286.684-2.459 1.285zm9.973-15.332c-.691-2.747-2.337-4.596-3.065-5.354a15.5 15.5 0 0 0-3.832-2.89c-3.11-1.67-7.264-2.56-11.882-1.397l4.884 19.394c-.707.178-1.647.063-2.467-.378a4.5 4.5 0 0 1-1.119-.866 6.6 6.6 0 0 1-.765-.968 8.8 8.8 0 0 1-1.148-2.656zm-18.779-9.641c-10.983 2.766-15.499 13.994-13.009 23.884l19.395-4.885c-.2-.792.02-.927-.14-.616-.073.144-.22.356-.475.564-.26.212-.571.368-.887.447zm-13.009 23.884c1.411 5.601 4.98 11.138 10.799 14.65 5.968 3.603 13.369 4.524 21.358 2.512l-4.884-19.394c-3.648.919-5.424.191-6.139-.24-.864-.522-1.486-1.405-1.739-2.412zm32.157 17.162c.494-.124 1.963-.475 3.371-1.051l-7.577-18.51c.085-.034.131-.05.126-.048l-.105.032c-.16.046-.349.095-.699.183zm2.024-.609.187-.046-4.884-19.395-.187.047zm.187-.046c-1.22.307-2.625.3-4.096-.293-1.719-.694-3.826-2.399-4.548-5.269l19.394-4.884c-1.121-4.452-4.324-7.169-7.365-8.396-2.793-1.126-5.746-1.188-8.269-.553zm-8.644-5.562c-.206-.819-.243-1.444-.25-1.551a6 6 0 0 1-.011-.241l-.001-.084-.004.116-.019.353a61 61 0 0 1-.241 2.595c-.236 2.148-.567 4.56-.826 6.078l19.716 3.36c.34-1.999.722-4.815.99-7.25a80 80 0 0 0 .319-3.498c.034-.514.062-1.095.065-1.661.001-.203.034-1.602-.344-3.101zm-1.26 6.793c.023-.103.239-1.039 1.109-2.043.952-1.097 1.969-1.462 2.264-1.537l4.884 19.395c2.994-.754 5.802-2.264 7.962-4.754 2.079-2.397 2.92-4.976 3.313-6.756z" mask="url(#a)"/><mask id="b" width="93.846" height="85.429" x="298.023" y="54.684" fill="#000" maskUnits="userSpaceOnUse"><path fill="#fff" d="M298.023 54.684h93.846v85.429h-93.846z"/><path d="m371.698 99.619-.199 3.161c-.337 5.366.637 9.755 4.337 13.643.544.516 1.442 1.534 1.376 2.588-.036.575-.36 1.132-1.061 1.568-.012.192-9.925 6.398-9.925 6.398-1.006.706-1.982.933-2.845.879-1.724-.108-16.735-6.15-15.662-23.205l.205-3.257c.633-10.06-3.988-14.583-10.958-15.407l-4.008 34.665c-.061.958-.977 1.766-1.935 1.706l-.192-.012-19.102-2.163c-1.143-.168-1.856-1.079-1.783-2.229l5.72-49.658c.162-1.048 1.079-1.857 2.037-1.796l.191.012 10.695 1.25c3.785-.532 7.354-.692 10.803-.475 19.45 1.223 33.457 14.032 32.306 32.331"/></mask><path fill="#BEA5A8" d="m371.698 99.619-.199 3.161c-.337 5.366.637 9.755 4.337 13.643.544.516 1.442 1.534 1.376 2.588-.036.575-.36 1.132-1.061 1.568-.012.192-9.925 6.398-9.925 6.398-1.006.706-1.982.933-2.845.879-1.724-.108-16.735-6.15-15.662-23.205l.205-3.257c.633-10.06-3.988-14.583-10.958-15.407l-4.008 34.665c-.061.958-.977 1.766-1.935 1.706l-.192-.012-19.102-2.163c-1.143-.168-1.856-1.079-1.783-2.229l5.72-49.658c.162-1.048 1.079-1.857 2.037-1.796l.191.012 10.695 1.25c3.785-.532 7.354-.692 10.803-.475 19.45 1.223 33.457 14.032 32.306 32.331"/><path fill="#BEA5A8" d="m375.836 116.423-7.245 6.894.182.19.191.182zm.315 4.156-5.29-8.486-4.367 2.723-.323 5.136zm-9.925 6.398-5.306-8.476-.223.139-.215.152zm-29.26-40.99 1.172-9.93-9.955-1.176-1.151 9.958zm-4.008 34.665-9.934-1.148-.03.259-.017.261zm-2.127 1.694-1.125 9.936.248.029.249.015zm-19.102-2.163-1.454 9.893.164.024.165.019zm-1.783-2.229-9.935-1.144-.029.258-.017.259zm5.72-49.658-9.882-1.53-.03.192-.022.193zm2.228-1.784 1.161-9.933-.266-.03-.267-.017zm10.695 1.25-1.161 9.932 1.278.15 1.274-.18zm33.129 31.229-.199 3.162 19.961 1.255.199-3.162zm-.199 3.162c-.451 7.172.872 14.648 7.072 21.164l14.489-13.787c-1.199-1.26-1.824-2.564-1.6-6.122zm7.445 21.536c-.056-.053-.341-.318-.669-.839-.259-.411-1.217-2.025-1.063-4.467l19.96 1.256c.22-3.496-1.153-6.146-1.981-7.458a15.8 15.8 0 0 0-2.504-3.023zm-1.732-5.306a8.3 8.3 0 0 1 1.319-3.993 7.6 7.6 0 0 1 2.31-2.297l10.581 16.973c2.923-1.823 5.476-5.066 5.75-9.427zm-1.061 1.569a9.98 9.98 0 0 1 3.226-6.739c.298-.27.535-.45.57-.476.121-.093.172-.125.071-.056a49 49 0 0 1-.915.609c-.874.572-2.07 1.337-3.301 2.119a843 843 0 0 1-4.484 2.83l-.311.195-.08.05-.021.013-.005.003-.001.001 5.306 8.476 5.307 8.476.002-.001.006-.004.022-.014.085-.053.319-.2 1.133-.712c.937-.59 2.19-1.38 3.447-2.178a385 385 0 0 0 3.521-2.261c.483-.316.957-.63 1.337-.893.171-.118.436-.303.704-.508.108-.083.402-.308.737-.613a10.2 10.2 0 0 0 1.949-2.406 10 10 0 0 0 1.337-4.403zm-5.689-1.16a5 5 0 0 1 1.487-.696 6 6 0 0 1 2.04-.22l-1.255 19.96c3.23.204 6.437-.723 9.217-2.674zm3.527-.916c.87.055 1.454.22 1.471.225.143.038.183.056.112.031a9 9 0 0 1-.927-.423 14.6 14.6 0 0 1-3.263-2.338c-2.084-1.987-4.022-5.009-3.703-10.092l-19.96-1.256c-.753 11.971 4.278 20.498 9.861 25.823a34.6 34.6 0 0 0 7.846 5.611 28 28 0 0 0 3.3 1.466c.663.242 2.248.803 4.008.913zm-6.31-12.597.205-3.258-19.96-1.255-.205 3.257zm.205-3.258c.412-6.546-.787-12.91-4.73-17.953-4.02-5.142-9.686-7.38-15.036-8.012l-2.345 19.862c.826.098 1.274.27 1.467.366a.8.8 0 0 1 .139.083c.007.005.01.008.019.018.001.002.17.208.328.85.164.674.306 1.802.198 3.531zm-30.872-17.182-4.008 34.665 19.867 2.297 4.008-34.665zm-4.055 35.185a8.18 8.18 0 0 1 2.737-5.638 8.18 8.18 0 0 1 5.936-2.008l-1.255 19.96c6.47.407 12.136-4.588 12.543-11.058zm8.673-7.646-.191-.012-1.256 19.96.192.012zm.306.032-19.101-2.164-2.251 19.873 19.102 2.163zm-18.772-2.121a7.93 7.93 0 0 1 5.025 2.924 7.87 7.87 0 0 1 1.717 5.369l-19.961-1.255c-.388 6.172 3.856 11.801 10.31 12.749zm6.696 8.81 5.72-49.66-19.868-2.288-5.721 49.659zm5.669-49.275a7.8 7.8 0 0 1-2.55 4.659 8.17 8.17 0 0 1-5.924 1.997l1.256-19.96c-6.917-.436-11.723 4.916-12.547 10.247zm-8.474 6.656.192.012 1.255-19.96-.191-.012zm-.341-.036 10.694 1.25 2.322-19.865-10.695-1.25zm13.246 1.22c3.195-.448 6.084-.567 8.784-.397l1.256-19.96c-4.198-.265-8.448-.062-12.821.552zm8.784-.397c7.74.487 13.717 3.23 17.527 6.943 3.687 3.594 5.821 8.52 5.427 14.78l19.961 1.256c.757-12.039-3.537-22.667-11.429-30.358-7.768-7.572-18.52-11.845-30.23-12.582z" mask="url(#b)"/><mask id="c" width="67.419" height="115.65" x="246.374" y="27.058" fill="#000" maskUnits="userSpaceOnUse"><path fill="#fff" d="M246.374 27.058h67.419v115.65h-67.419z"/><path d="m288.618 127.364-19.98-1.333-.199-.023c-1.092-.128-1.782-1.115-1.754-2.219l3.181-48.66c.14-1.192 1.039-1.993 2.242-1.953l19.981 1.333.198.023c.994.117 1.783 1.115 1.667 2.108l-3.193 48.76-.023.199c-.116.993-1.115 1.782-2.12 1.765m9.053-68.714c-.942 8.045-8.265 13.833-16.31 12.891-8.144-.953-13.932-8.276-12.99-16.321a14.767 14.767 0 0 1 16.421-12.979c8.045.942 13.833 8.265 12.879 16.41"/></mask><path fill="#BEA5A8" d="m288.618 127.364-19.98-1.333-.199-.023c-1.092-.128-1.782-1.115-1.754-2.219l3.181-48.66c.14-1.192 1.039-1.993 2.242-1.953l19.981 1.333.198.023c.994.117 1.783 1.115 1.667 2.108l-3.193 48.76-.023.199c-.116.993-1.115 1.782-2.12 1.765m9.053-68.714c-.942 8.045-8.265 13.833-16.31 12.891-8.144-.953-13.932-8.276-12.99-16.321a14.767 14.767 0 0 1 16.421-12.979c8.045.942 13.833 8.265 12.879 16.41"/><path fill="#BEA5A8" d="m288.618 127.364-.798 11.973.297.02.299.005zm-19.98-1.333-1.396 11.919.298.035.299.02zm-1.953-2.242-11.974-.783-.016.236-.006.236zm3.181-48.66-11.919-1.396-.035.306-.02.307zm2.242-1.953.799-11.973-.199-.014-.199-.006zm19.981 1.333 1.395-11.919-.297-.035-.299-.02zm1.865 2.131-11.919-1.395-.036.305-.02.306zm-3.193 48.76 11.919 1.395.036-.305.02-.306zm-1.344-10.009-19.981-1.333-1.597 23.947 19.981 1.332zm-19.384-1.278-.198-.024-2.791 23.838.198.023zm-.198-.024c6.377.747 8.942 6.318 8.846 10.011l-23.992-.622c-.153 5.901 3.792 13.446 12.355 14.449zm8.825 10.483 3.18-48.66-23.948-1.566-3.181 48.66zm3.125-48.048a9.8 9.8 0 0 1-3.287 6.19 9.85 9.85 0 0 1-6.791 2.456l.802-23.987c-7.64-.256-13.72 5.36-14.562 12.55zM271.31 85.15l19.98 1.332 1.598-23.946-19.981-1.333zm19.383 1.277.199.024 2.791-23.837-.199-.024zm.199.024a10.1 10.1 0 0 1-6.77-3.753 10.1 10.1 0 0 1-2.087-7.453l23.837 2.79c.887-7.575-4.613-14.534-12.189-15.421zm-8.913-10.595-3.192 48.76 23.949 1.568 3.192-48.76zm-3.136 48.148-.023.199 23.837 2.791.023-.199zm-.023.199a10.05 10.05 0 0 1 3.587-6.625 9.82 9.82 0 0 1 6.414-2.212l-.405 23.996c6.46.109 13.328-4.572 14.241-12.368zm6.932-66.948c-.171 1.462-1.533 2.539-2.995 2.368l-2.791 23.837c14.627 1.713 27.911-8.786 29.624-23.414zm-2.995 2.368c-1.615-.19-2.632-1.598-2.467-3.008l-23.837-2.79c-1.719 14.68 8.839 27.917 23.513 29.635zm-2.467-3.008a2.767 2.767 0 0 1 3.106-2.455l2.792-23.837c-14.727-1.725-28.011 8.774-29.735 23.501zm3.106-2.455c1.41.165 2.546 1.48 2.356 3.095l23.838 2.791c1.718-14.674-8.722-28.004-23.402-29.723z" mask="url(#c)"/><mask id="d" width="70.709" height="105.126" x="198.704" y="37.602" fill="#000" maskUnits="userSpaceOnUse"><path fill="#fff" d="M198.704 37.602h70.709v105.126h-70.709z"/><path d="m215.68 128.142-3.263-13.748c-.095-.182-.1-.458-.103-.642-.023-1.38 1.349-1.863 1.901-1.872l.368-.006c6.255-.103 13.008-3.527 12.912-9.323-.05-3.035-1.752-5.767-6.847-13.412-3.865-5.641-5.606-10.765-5.681-15.272-.24-14.534 16.182-22.995 31.636-23.25 3.588-.06 5.434.278 6.018 2.2l3.444 13.561c.097.275.101.55.104.735.025 1.472-1.346 2.046-1.898 2.055l-.552.01c-5.979.098-11.554 2.399-11.467 7.642.051 3.128 2.423 7.413 6.753 13.322 3.958 5.64 5.699 10.764 5.775 15.363.252 15.27-17.905 24.587-33.818 24.85-.92.015-1.748.029-2.67-.048-1.195.02-2.316-.974-2.612-2.165"/></mask><path fill="#BEA5A8" d="m215.68 128.142-3.263-13.748c-.095-.182-.1-.458-.103-.642-.023-1.38 1.349-1.863 1.901-1.872l.368-.006c6.255-.103 13.008-3.527 12.912-9.323-.05-3.035-1.752-5.767-6.847-13.412-3.865-5.641-5.606-10.765-5.681-15.272-.24-14.534 16.182-22.995 31.636-23.25 3.588-.06 5.434.278 6.018 2.2l3.444 13.561c.097.275.101.55.104.735.025 1.472-1.346 2.046-1.898 2.055l-.552.01c-5.979.098-11.554 2.399-11.467 7.642.051 3.128 2.423 7.413 6.753 13.322 3.958 5.64 5.699 10.764 5.775 15.363.252 15.27-17.905 24.587-33.818 24.85-.92.015-1.748.029-2.67-.048-1.195.02-2.316-.974-2.612-2.165"/><path fill="#BEA5A8" d="m215.68 128.142-11.675 2.772.014.06.015.059zm-3.263-13.748 11.675-2.771-.344-1.45-.688-1.322zm8.231-25.255 9.986-6.655-.043-.065-.044-.064zm31.973-36.322 11.63-2.954-.068-.268-.08-.264zm3.444 13.561-11.631 2.955.133.52.178.508zm-7.06 23.764 9.822-6.893-.07-.1-.073-.1zm-30.713 40.165.997-11.958-.596-.05-.599.01zm9.064-4.936-3.264-13.748-23.351 5.543 3.264 13.748zm-4.296-16.52c.513.986.783 1.855.931 2.434.151.593.222 1.083.259 1.397.066.568.065 1.03.062.872l-23.996.396c0 .025.003.718.096 1.515.078.666.32 2.473 1.362 4.473zm1.252 4.703c.067 4.019-2.162 6.984-4.256 8.49a9.7 9.7 0 0 1-2.606 1.332 10.2 10.2 0 0 1-3.036.503l-.397-23.997c-2.712.045-5.571.949-7.975 2.678-2.912 2.095-5.816 5.991-5.726 11.39zm-9.898 10.325.368-.007-.397-23.996-.368.006zm.368-.007c5.014-.082 10.538-1.455 15.166-4.455 4.736-3.071 9.682-8.783 9.545-17.064l-23.996.397a5.05 5.05 0 0 1 .75-2.712c.393-.623.734-.817.646-.76-.079.051-.371.213-.896.361a6.5 6.5 0 0 1-1.612.237zm24.711-21.519c-.067-4.09-1.358-7.437-2.924-10.394-1.413-2.668-3.496-5.815-5.935-9.475l-19.971 13.31c2.656 3.985 3.971 6.026 4.695 7.395.572 1.079.156.616.139-.439zm-8.946-19.998c-2.942-4.292-3.556-7.161-3.581-8.687l-23.997.397c.124 7.49 2.991 14.868 7.781 21.857zm-3.581-8.687c-.034-2.035.897-4.359 4.543-6.765 3.802-2.508 9.459-4.192 15.293-4.288l-.397-23.997c-9.62.16-19.901 2.834-28.114 8.253-8.369 5.522-15.529 14.695-15.322 27.194zm19.836-11.053a15 15 0 0 1 1.243.014c.174.014-.26.001-.993-.235-.805-.26-2.148-.85-3.457-2.115a9.4 9.4 0 0 1-2.457-3.975l22.965-6.974c-.652-2.144-1.842-4.386-3.821-6.3-1.931-1.869-4.069-2.899-5.857-3.476-3.092-.998-6.29-.964-8.02-.936zm-5.812-6.843 3.444 13.56 23.262-5.908-3.445-13.56zm3.755 14.589a10.2 10.2 0 0 1-.524-2.298c-.052-.48-.052-.865-.05-.752l23.997-.397c-.002-.09.037-2.186-.783-4.518zm-.574-3.05c-.059-3.569 1.77-6.384 3.742-7.971a9.7 9.7 0 0 1 2.629-1.507 10.4 10.4 0 0 1 3.531-.663l.396 23.997c3.209-.053 6.218-1.3 8.49-3.129 2.79-2.244 5.292-6.083 5.209-11.124zm9.902-10.141-.552.01.396 23.996.552-.01zm-.552.01c-4.19.068-9.333.885-13.858 3.525-5.025 2.932-9.54 8.45-9.41 16.313l23.997-.396c.016.95-.255 2.135-.943 3.221-.63.997-1.321 1.459-1.549 1.591-.211.124-.153.046.31-.06a9.2 9.2 0 0 1 1.849-.198zm-23.268 19.838c.071 4.288 1.642 8.095 3.116 10.941 1.557 3.004 3.648 6.125 5.957 9.276l19.358-14.186c-2.021-2.758-3.281-4.734-4.006-6.132-.806-1.556-.447-1.455-.428-.295zm8.929 20.018c2.961 4.218 3.573 7.054 3.599 8.667l23.997-.396c-.125-7.586-2.996-14.998-7.951-22.058zm3.599 8.667c.037 2.202-1.102 4.976-5.44 7.827-4.392 2.888-10.639 4.729-16.578 4.827l.397 23.997c9.975-.165 20.763-3.114 29.365-8.769 8.656-5.69 16.469-15.211 16.253-28.278zm-22.018 12.654c-.986.016-1.237.012-1.474-.008l-1.993 23.917c1.606.134 3.011.102 3.864.088zm-2.669-.048a9.5 9.5 0 0 1 6.307 2.21 9 9 0 0 1 2.926 4.732l-23.293 5.782c1.404 5.659 6.745 11.4 14.457 11.273z" mask="url(#d)"/><mask id="e" width="97.836" height="94.015" x="119.795" y="49.947" fill="#000" maskUnits="userSpaceOnUse"><path fill="#fff" d="M119.795 49.947h97.836v94.015h-97.836z"/><path d="M203.611 98.478c-.918 21.04-22.795 31.868-38.117 31.199-17.587-.768-32.461-14.173-31.631-33.163.97-22.227 18.09-33.046 37.08-32.217 23.845 1.04 33.281 20.155 32.668 34.181m-34.628 10.704c7.661.334 11.387-5.773 11.656-11.923.089-2.05.115-12.535-10.891-13.016-9.063-.395-11.987 7.153-12.199 12.008-.325 7.445 5.284 12.662 11.434 12.931"/></mask><path fill="#BEA5A8" d="M203.611 98.478c-.918 21.04-22.795 31.868-38.117 31.199-17.587-.768-32.461-14.173-31.631-33.163.97-22.227 18.09-33.046 37.08-32.217 23.845 1.04 33.281 20.155 32.668 34.181m-34.628 10.704c7.661.334 11.387-5.773 11.656-11.923.089-2.05.115-12.535-10.891-13.016-9.063-.395-11.987 7.153-12.199 12.008-.325 7.445 5.284 12.662 11.434 12.931"/><path fill="#BEA5A8" d="M191.623 97.955c-.262 6.006-3.4 10.825-8.554 14.435-5.394 3.779-12.101 5.515-17.051 5.299l-1.047 23.977c10.371.453 22.263-2.891 31.868-9.619 9.844-6.896 18.104-18.011 18.761-33.045zm-25.605 19.734c-11.958-.522-20.665-9.233-20.167-20.652l-23.977-1.047c-1.16 26.561 19.88 44.662 43.097 45.676zm-20.167-20.652c.344-7.87 3.381-12.802 7.257-15.88 4.111-3.264 10.147-5.184 17.312-4.872l1.047-23.977c-11.826-.516-23.844 2.559-33.283 10.054-9.675 7.681-15.683 19.271-16.31 33.628zm24.569-20.752c8.457.37 13.524 3.762 16.613 7.672 3.351 4.242 4.78 9.651 4.59 13.998l23.977 1.047c.423-9.68-2.561-20.842-9.735-29.923-7.437-9.414-19.01-16.099-34.398-16.77zm-1.96 44.886c7.513.328 13.924-2.657 18.253-7.731 4.022-4.715 5.69-10.529 5.914-15.658l-23.977-1.046a3.6 3.6 0 0 1-.181 1.025c-.083.233-.127.234-.015.103.059-.07.155-.167.294-.272.142-.106.302-.2.469-.273.168-.073.301-.106.377-.12.072-.012.051 0-.087-.006zm24.167-23.389c.069-1.568.207-7.057-2.381-12.655-1.38-2.985-3.642-6.23-7.251-8.76-3.654-2.563-7.995-3.906-12.724-4.112l-1.046 23.977c.422.019.561.074.498.054a2 2 0 0 1-.507-.27 2.7 2.7 0 0 1-.565-.528 1.6 1.6 0 0 1-.189-.29c-.006-.01.021.045.057.183.035.137.068.31.093.51.051.415.042.752.038.844zm-22.356-25.527c-8.5-.371-15.204 3.211-19.434 8.682-3.788 4.897-5.094 10.591-5.277 14.79l23.977 1.047a3.452 3.452 0 0 1 .156-.827c.045-.142.09-.244.121-.306.031-.061.039-.063.007-.022a1.5 1.5 0 0 1-.235.235 2 2 0 0 1-.443.28 1.4 1.4 0 0 1-.298.106c-.02.004.095-.02.38-.008zM145.56 95.727c-.626 14.342 10.408 24.898 22.9 25.444l1.047-23.978c.075.004.106.02.102.018a.1.1 0 0 1-.024-.019c-.003-.002-.006-.005-.013-.023a.6.6 0 0 1-.023-.097 1.6 1.6 0 0 1-.012-.298z" mask="url(#e)"/><mask id="f" width="138.356" height="148.263" x="6.038" y="5.808" fill="#000" maskUnits="userSpaceOnUse"><path fill="#fff" d="M6.038 5.808h138.356v148.263H6.038z"/><path d="m119.992 92.125 10.673 18.662c.569.975.998 1.951 1.007 2.931.012 1.26-.536 2.525-2.062 4.079-15.257 15.542-32.972 22.567-49.772 22.722-32.058.297-60.565-24.08-60.895-59.638-.393-42.418 31.21-61.752 64.388-62.06 12.46-.115 24.246 2.716 32.838 8.237.986.69 1.7 2.224 1.713 3.624.004.42.007.7-.129 1.121l-7.635 22.192c-.41 1.124-1.798 2.397-3.338 2.41-.56.006-1.121-.129-1.544-.405-4.365-2.76-12.227-5.067-20.207-4.993-17.639.164-27.757 11.178-27.6 28.257.154 16.52 12.702 25.924 27.401 25.787 9.8-.09 20.819-4.533 29.552-13.994.554-.565 1.392-.853 2.092-.86 1.4-.012 2.947.813 3.518 1.928"/></mask><path fill="#BEA5A8" d="m119.992 92.125 10.673 18.662c.569.975.998 1.951 1.007 2.931.012 1.26-.536 2.525-2.062 4.079-15.257 15.542-32.972 22.567-49.772 22.722-32.058.297-60.565-24.08-60.895-59.638-.393-42.418 31.21-61.752 64.388-62.06 12.46-.115 24.246 2.716 32.838 8.237.986.69 1.7 2.224 1.713 3.624.004.42.007.7-.129 1.121l-7.635 22.192c-.41 1.124-1.798 2.397-3.338 2.41-.56.006-1.121-.129-1.544-.405-4.365-2.76-12.227-5.067-20.207-4.993-17.639.164-27.757 11.178-27.6 28.257.154 16.52 12.702 25.924 27.401 25.787 9.8-.09 20.819-4.533 29.552-13.994.554-.565 1.392-.853 2.092-.86 1.4-.012 2.947.813 3.518 1.928"/><path fill="#BEA5A8" d="m119.992 92.125-10.683 5.466.127.249.139.243zm10.673 18.662-10.416 5.958.026.046.027.046zm-1.055 7.01 8.564 8.406zm-13.441-90.74 6.884-9.828-.196-.137-.201-.13zm1.584 4.746 11.347 3.904.037-.107.035-.108zm-7.635 22.192 11.275 4.109.037-.102.035-.103zM105.236 56l6.564-10.046-.076-.049-.076-.048zm9.146 35.057-8.564-8.406-.129.131-.125.136zm-4.807 7.026 10.674 18.662 20.833-11.916-10.674-18.662zm10.727 18.754c.091.157-.032-.027-.186-.446a7.7 7.7 0 0 1-.443-2.562l23.999-.222c-.039-4.232-1.827-7.471-2.644-8.87zm-.629-3.008a7.8 7.8 0 0 1 .762-3.449c.404-.825.775-1.156.612-.989l17.127 16.812c2.821-2.874 5.549-7.032 5.498-12.596zm1.374-4.438c-13.19 13.436-27.928 19.005-41.32 19.129l.223 23.999c20.206-.188 40.9-8.668 58.224-26.316zm-41.32 19.129c-25.93.24-48.52-19.307-48.784-47.75l-24 .222c.396 42.673 34.82 71.881 73.007 71.527zM30.943 80.77c-.166-17.904 6.277-29.851 15.366-37.558 9.402-7.972 22.684-12.257 37.133-12.39l-.222-24c-18.73.174-37.838 5.71-52.433 18.085C15.878 37.55 6.717 56.477 6.944 80.992zm52.5-49.949c10.792-.1 20.112 2.395 26.239 6.332l12.974-20.19C111.6 9.857 97.346 6.69 83.22 6.822zm25.842 6.066c-1.667-1.168-2.43-2.49-2.752-3.172a6.9 6.9 0 0 1-.65-2.922l23.999-.222a17.1 17.1 0 0 0-1.634-7.078c-.929-1.973-2.542-4.406-5.195-6.264zm-3.402-6.094c.001.137 0 .085.001.008a9.475 9.475 0 0 1 .45-2.686l22.838 7.377c.78-2.414.715-4.39.71-4.921zm.522-2.894-7.634 22.192 22.694 7.808 7.635-22.192zm-7.561 21.987c.69-1.894 1.776-3.052 2.652-3.734.936-.73 2.686-1.723 5.173-1.746l.222 24c4.027-.038 7.241-1.674 9.359-3.325 2.057-1.604 4.043-3.959 5.143-6.977zm7.825-5.48c1.22-.01 3.129.24 5.131 1.548L98.673 66.046c2.847 1.86 5.878 2.381 8.218 2.36zm4.979 1.45c-6.625-4.187-16.837-6.94-26.73-6.848l.222 23.999c2.84-.027 5.747.377 8.328 1.048 2.66.692 4.49 1.54 5.357 2.089zm-26.73-6.848c-11.337.105-21.618 3.768-29.017 11.472-7.36 7.663-10.572 17.973-10.47 28.895l23.998-.222c-.057-6.157 1.712-9.894 3.781-12.048 2.03-2.115 5.629-4.04 11.93-4.098zM45.43 79.375c.107 11.497 4.637 21.271 12.313 28.033 7.513 6.618 17.314 9.734 27.198 9.643l-.222-24c-4.816.046-8.637-1.472-11.112-3.652-2.311-2.036-4.131-5.223-4.178-10.246zm39.511 37.676c13.269-.123 27.39-6.08 38.259-17.855l-17.636-16.278c-6.597 7.147-14.515 10.075-20.845 10.134zm38.004-17.588a9.2 9.2 0 0 1-3.196 2.129 8.9 8.9 0 0 1-3.164.605l-.222-23.999c-3.368.031-7.424 1.274-10.545 4.453zm-6.36 2.734c-1.577.015-2.834-.406-3.771-.915-.867-.471-2.404-1.54-3.505-3.691l21.366-10.932c-1.672-3.267-4.268-5.305-6.401-6.464-2.204-1.198-4.934-2.024-7.911-1.997z" mask="url(#f)"/><g clip-path="url(#g)"><path fill="#BEA5A8" stroke="#BEA5A8" stroke-width="5" d="M366.296 64.41a14.2 14.2 0 0 0 3.227-1.478q-.02 1.346.237 2.69a12.9 12.9 0 0 0 2.147 5.067 12.7 12.7 0 0 0 4.418 4.035l2.106 1.166 1.245-2.06 1.101-1.823 1.664.721 2.078.902 1.102-1.98c1.128-2.03 1.682-4.2 1.608-6.472v-.018a13.5 13.5 0 0 0-.423-2.833q1.35.361 2.772.447a14.1 14.1 0 0 0 5.567-.789h.002a13.45 13.45 0 0 0 5.105-3.223l1.757-1.763-1.755-1.765-1.405-1.414 1.115-1.36 1.5-1.831-1.746-1.598a12.56 12.56 0 0 0-5.921-3.054h-.005a13.7 13.7 0 0 0-2.704-.295q.752-1.219 1.237-2.592c.624-1.77.885-3.597.776-5.463l-.001-.026-.002-.026a12.86 12.86 0 0 0-1.81-5.661l-1.234-2.058-2.106 1.149-1.881 1.025-1.039-1.41-1.373-1.866-1.964 1.227c-1.964 1.226-3.515 2.847-4.604 4.85l-.004.006a13 13 0 0 0-.344.684q-.13-.158-.266-.313a13.26 13.26 0 0 0-4.487-3.326l-.002-.001a13.8 13.8 0 0 0-5.855-1.256l-2.436.009-.055 2.435-.047 2.058-1.836.191-2.315.241.075 2.327c.075 2.318.722 4.463 1.961 6.376a13.6 13.6 0 0 0 2.265 2.66q-1.153.33-2.253.862a14.15 14.15 0 0 0-4.459 3.367l-.018.02-.017.02a13.3 13.3 0 0 0-2.787 5.361l-.613 2.375 2.363.658 2.014.561-.286 1.687-.397 2.347 2.326.511c2.261.498 4.504.41 6.682-.28Z"/></g><mask id="h" width="93.961" height="95.412" x="358.096" y="44.798" fill="#000" maskUnits="userSpaceOnUse"><path fill="#fff" d="M358.096 44.798h93.961v95.412h-93.961z"/><path d="m417.452 119.166-1.118.281c-21.132 5.322-35.378-6.435-38.942-20.585-3.352-13.313 2.534-29.645 23.759-34.99 23.087-5.814 29.292 14.502 30.066 17.574 1.078 4.282.2 8.265-4.823 11.51-4 2.592-10.631 5.35-15.425 6.756-1.49.375-2.12-.16-2.773-1.183-1.891-2.79-5.184-8.396-5.277-8.769-.258-1.024.369-1.677 1.509-2.26 4.56-2.337 5.164-2.687 4.836-3.99-.211-.838-2.73-3.372-6.64-2.387-4.468 1.125-7.207 5.973-5.754 11.745 1.665 6.61 8.381 12.838 20.018 9.907.651-.164 1.396-.352 2.024-.609l.187-.047c1.303-.328 3.097.111 3.495 1.694.234.931-.592 7.871-1.191 11.388-.37 1.677-1.252 3.285-3.951 3.965"/></mask><path fill="#fff" d="m426.394 92.956-5.426-8.4-.011.008zm-15.425 6.756 2.442 9.697.186-.047.184-.054zm-2.773-1.183 8.427-5.383-.073-.114-.075-.112zm-3.768-11.03-4.56-8.9zm14.484 14.667-2.442-9.697-.689.174-.657.269zm2.491 13.035 9.766 2.152.051-.235.041-.237zm-6.394-5.733-1.117.282 4.884 19.394 1.118-.281zm-1.117.282c-8.238 2.074-14.288.675-18.421-1.838-4.266-2.594-7.2-6.801-8.381-11.492l-19.395 4.884c2.382 9.459 8.353 18.205 17.385 23.697 9.164 5.572 20.802 7.39 33.696 4.143zM387.09 96.42c-1.117-4.434-.634-9.13 1.624-13.039 2.17-3.755 6.509-7.704 14.879-9.811l-4.884-19.395c-12.855 3.237-22.071 10.128-27.313 19.202-5.153 8.922-5.937 19.048-3.701 27.927zm16.503-22.85c7.95-2.003 11.612.454 13.735 2.672 2.776 2.9 3.973 6.776 4.192 7.646l19.394-4.884c-.554-2.202-2.847-10.02-9.139-16.592-6.945-7.255-17.929-12.049-33.066-8.237zm17.927 10.318c.104.414.105.604.105.618 0 .003 0-.037.013-.11s.036-.163.071-.26c.079-.215.165-.309.131-.27-.05.059-.283.31-.872.69l10.852 16.8c3.887-2.51 7.033-5.894 8.659-10.312 1.604-4.361 1.305-8.585.435-12.04zm-.563.675c-2.951 1.912-8.619 4.327-12.801 5.553l5.625 19.192c5.406-1.584 13.001-4.688 18.05-7.959zm-12.43 5.452c.654-.165 2.798-.534 5.247.703a8 8 0 0 1 2.259 1.686c.212.229.361.42.449.54.088.118.137.195.141.202l-16.855 10.766c.525.821 2.05 3.174 4.995 4.66 3.3 1.666 6.504 1.377 8.648.837zm7.948 2.905c-.781-1.152-1.959-3.053-3.002-4.803-.51-.855-.949-1.608-1.251-2.144a26 26 0 0 1-.286-.515c-.023-.044.006.008.059.119.025.053.089.189.167.375.034.082.268.627.454 1.366l-19.395 4.885c.193.763.438 1.341.49 1.465.096.23.184.42.239.534.113.235.224.449.303.6.167.315.363.67.559 1.015.4.708.92 1.6 1.482 2.542 1.099 1.843 2.513 4.14 3.623 5.779zm-3.859-5.602c.238.944.361 2.187.097 3.59a8.6 8.6 0 0 1-1.5 3.47 7.6 7.6 0 0 1-1.585 1.612c-.357.264-.61.394-.64.41l-9.12-17.8c-1.004.514-3.123 1.689-4.783 3.951-2.088 2.848-2.695 6.348-1.864 9.651zm-3.628 9.081c1.752-.898 4.25-2.126 5.927-3.464 1.072-.855 2.948-2.6 3.887-5.5.942-2.911.408-5.38.159-6.368l-19.394 4.885c-.085-.337-.571-2.272.207-4.678.776-2.396 2.278-3.662 2.669-3.974.364-.29.501-.325-.116.015-.535.295-1.286.684-2.459 1.285zm9.973-15.332c-.691-2.747-2.337-4.596-3.065-5.354a15.5 15.5 0 0 0-3.832-2.89c-3.11-1.67-7.264-2.56-11.882-1.397l4.884 19.394c-.707.178-1.647.063-2.467-.378a4.5 4.5 0 0 1-1.119-.866 6.6 6.6 0 0 1-.765-.968 8.8 8.8 0 0 1-1.148-2.656zm-18.779-9.641c-10.983 2.766-15.499 13.994-13.009 23.884l19.395-4.885c-.2-.792.02-.927-.14-.616-.073.144-.22.356-.475.564-.26.212-.571.368-.887.447zM387.173 95.31c1.411 5.601 4.98 11.138 10.799 14.65 5.968 3.603 13.369 4.524 21.358 2.512l-4.884-19.394c-3.648.919-5.424.191-6.139-.24-.864-.522-1.486-1.405-1.739-2.412zm32.157 17.162c.494-.124 1.963-.475 3.371-1.051l-7.577-18.51c.085-.034.131-.05.126-.048l-.105.032c-.16.046-.349.095-.699.183zm2.024-.609.187-.046-4.884-19.395-.187.047zm.187-.046c-1.22.307-2.625.3-4.096-.293-1.719-.694-3.826-2.399-4.548-5.269l19.394-4.884c-1.121-4.452-4.324-7.169-7.365-8.396-2.793-1.126-5.746-1.188-8.269-.553zm-8.644-5.562c-.206-.819-.243-1.444-.25-1.551a6 6 0 0 1-.011-.241l-.001-.084-.004.116-.019.353a61 61 0 0 1-.241 2.595c-.236 2.148-.567 4.56-.826 6.078l19.716 3.36c.34-1.999.722-4.815.99-7.25a80 80 0 0 0 .319-3.498c.034-.514.062-1.095.065-1.661.001-.203.034-1.602-.344-3.101zm-1.26 6.793c.023-.103.239-1.039 1.109-2.043.952-1.097 1.969-1.462 2.263-1.537l4.885 19.395c2.994-.754 5.802-2.264 7.962-4.754 2.079-2.397 2.92-4.976 3.313-6.756z" mask="url(#h)"/><mask id="i" width="93.846" height="85.429" x="292.023" y="48.684" fill="#000" maskUnits="userSpaceOnUse"><path fill="#fff" d="M292.023 48.684h93.846v85.429h-93.846z"/><path d="m365.698 93.619-.199 3.161c-.337 5.366.637 9.755 4.337 13.643.544.516 1.442 1.534 1.376 2.588-.036.575-.36 1.132-1.061 1.568-.012.192-9.925 6.398-9.925 6.398-1.006.706-1.982.933-2.845.879-1.724-.108-16.735-6.15-15.662-23.205l.205-3.257c.633-10.06-3.988-14.583-10.958-15.407l-4.008 34.665c-.061.958-.977 1.766-1.935 1.706l-.192-.012-19.102-2.163c-1.143-.168-1.856-1.079-1.783-2.229l5.72-49.659c.162-1.047 1.079-1.855 2.037-1.795l.191.012 10.695 1.25c3.785-.532 7.354-.692 10.803-.475 19.45 1.223 33.457 14.032 32.306 32.332"/></mask><path fill="#fff" d="m369.836 110.423-7.245 6.894.182.19.191.182zm.315 4.156-5.29-8.486-4.367 2.723-.323 5.136zm-9.925 6.398-5.306-8.476-.223.139-.215.152zm-29.26-40.99 1.172-9.93-9.955-1.176-1.151 9.958zm-4.008 34.665-9.934-1.148-.03.259-.017.261zm-2.127 1.694-1.125 9.936.248.029.249.015zm-19.102-2.163-1.454 9.893.164.024.165.019zm-1.783-2.229-9.935-1.144-.029.258-.017.259zm5.72-49.659-9.882-1.528-.03.191-.022.193zm2.228-1.783 1.161-9.933-.266-.03-.267-.017zm10.695 1.25-1.161 9.932 1.278.15 1.274-.18zm33.129 31.229-.199 3.162 19.961 1.255.199-3.162zm-.199 3.162c-.451 7.172.872 14.648 7.072 21.164l14.489-13.787c-1.199-1.26-1.824-2.564-1.6-6.122zm7.445 21.536c-.056-.053-.341-.318-.669-.839-.259-.411-1.217-2.025-1.063-4.467l19.96 1.256c.22-3.496-1.153-6.146-1.981-7.458a15.8 15.8 0 0 0-2.504-3.023zm-1.732-5.306a8.3 8.3 0 0 1 1.319-3.993 7.6 7.6 0 0 1 2.31-2.297l10.58 16.973c2.924-1.823 5.477-5.066 5.751-9.427zm-1.061 1.569a9.98 9.98 0 0 1 3.226-6.739c.298-.27.535-.45.57-.476.121-.093.172-.125.071-.056a49 49 0 0 1-.915.609c-.874.572-2.07 1.337-3.301 2.119a843 843 0 0 1-4.484 2.83l-.311.195-.08.05-.021.013-.005.003-.001.001 5.306 8.476 5.307 8.476.002-.001.006-.004.022-.014.085-.053.319-.2 1.133-.712c.937-.59 2.19-1.38 3.447-2.178a385 385 0 0 0 3.521-2.261c.483-.316.957-.63 1.337-.893.171-.118.436-.303.704-.508.108-.083.402-.308.737-.613a10.2 10.2 0 0 0 1.949-2.406 10 10 0 0 0 1.337-4.403zm-5.689-1.16a5 5 0 0 1 1.487-.696 6 6 0 0 1 2.04-.22l-1.255 19.96c3.23.204 6.437-.723 9.217-2.674zm3.527-.916c.87.055 1.454.22 1.471.225.143.038.183.056.112.031a9 9 0 0 1-.927-.423 14.6 14.6 0 0 1-3.263-2.338c-2.084-1.987-4.022-5.009-3.703-10.092l-19.96-1.255c-.753 11.97 4.278 20.497 9.861 25.822a34.6 34.6 0 0 0 7.846 5.611 28 28 0 0 0 3.3 1.466c.663.242 2.248.803 4.008.913zm-6.31-12.597.205-3.258-19.96-1.255-.205 3.257zm.205-3.258c.412-6.546-.787-12.91-4.73-17.953-4.02-5.142-9.686-7.38-15.036-8.012l-2.345 19.862c.826.098 1.274.27 1.467.366a.8.8 0 0 1 .139.083c.007.005.01.008.018.018.002.002.171.208.329.85.164.674.306 1.802.198 3.53zM321.032 78.84l-4.008 34.665 19.867 2.297 4.008-34.665zm-4.055 35.185a8.18 8.18 0 0 1 2.737-5.638 8.18 8.18 0 0 1 5.936-2.008l-1.255 19.96c6.47.407 12.136-4.588 12.543-11.058zm8.673-7.646-.191-.012-1.256 19.96.192.012zm.306.032-19.101-2.164-2.251 19.873 19.102 2.163zm-18.772-2.121a7.93 7.93 0 0 1 5.025 2.924 7.87 7.87 0 0 1 1.717 5.369l-19.961-1.255c-.388 6.172 3.856 11.801 10.31 12.749zm6.696 8.81 5.72-49.66-19.868-2.288-5.721 49.659zm5.669-49.275a7.8 7.8 0 0 1-2.55 4.659 8.17 8.17 0 0 1-5.924 1.997l1.256-19.96c-6.917-.436-11.723 4.916-12.547 10.247zm-8.474 6.656.192.012 1.255-19.96-.191-.012zm-.341-.036 10.694 1.25 2.322-19.865-10.695-1.25zm13.246 1.22c3.195-.448 6.084-.567 8.784-.397l1.256-19.96c-4.198-.265-8.448-.062-12.821.552zm8.784-.397c7.74.487 13.717 3.23 17.527 6.943 3.687 3.594 5.821 8.52 5.427 14.78l19.961 1.256c.757-12.039-3.537-22.667-11.429-30.358-7.768-7.572-18.52-11.845-30.23-12.581z" mask="url(#i)"/><mask id="j" width="67.419" height="115.65" x="240.374" y="21.058" fill="#000" maskUnits="userSpaceOnUse"><path fill="#fff" d="M240.374 21.058h67.419v115.65h-67.419z"/><path d="m282.618 121.364-19.98-1.333-.199-.023c-1.092-.128-1.782-1.115-1.754-2.219l3.181-48.66c.14-1.192 1.039-1.993 2.242-1.953l19.981 1.333.198.023c.994.117 1.783 1.115 1.667 2.108l-3.193 48.76-.023.199c-.116.993-1.115 1.782-2.12 1.765m9.053-68.714c-.942 8.046-8.265 13.833-16.31 12.891-8.144-.953-13.932-8.276-12.99-16.321a14.767 14.767 0 0 1 16.421-12.979c8.045.942 13.833 8.265 12.879 16.41"/></mask><path fill="#fff" d="m282.618 121.364-.798 11.973.297.02.299.005zm-19.98-1.333-1.396 11.919.298.035.299.02zm-1.953-2.242-11.974-.783-.016.236-.006.236zm3.181-48.66-11.919-1.396-.035.306-.02.307zm2.242-1.953.799-11.973-.199-.014-.199-.006zm19.981 1.333 1.395-11.919-.297-.035-.299-.02zm1.865 2.131-11.919-1.395-.036.305-.02.306zm-3.193 48.76 11.919 1.395.036-.305.02-.306zm-1.344-10.009-19.981-1.333-1.597 23.947 19.981 1.332zm-19.384-1.278-.198-.024-2.791 23.838.198.023zm-.198-.024c6.377.747 8.942 6.318 8.846 10.011l-23.992-.622c-.153 5.901 3.792 13.446 12.355 14.449zm8.825 10.483 3.18-48.66-23.948-1.566-3.181 48.66zm3.125-48.048a9.8 9.8 0 0 1-3.287 6.19 9.85 9.85 0 0 1-6.791 2.456l.802-23.987c-7.64-.256-13.72 5.36-14.562 12.55zM265.31 79.15l19.98 1.332 1.598-23.946-19.981-1.333zm19.383 1.277.199.024 2.791-23.837-.199-.024zm.199.024a10.1 10.1 0 0 1-6.77-3.753 10.1 10.1 0 0 1-2.087-7.453l23.837 2.79c.887-7.575-4.613-14.534-12.189-15.421zm-8.913-10.595-3.192 48.76 23.949 1.568 3.192-48.76zm-3.136 48.148-.023.199 23.837 2.791.023-.199zm-.023.199a10.05 10.05 0 0 1 3.587-6.625 9.82 9.82 0 0 1 6.414-2.212l-.405 23.996c6.46.109 13.328-4.572 14.241-12.368zm6.932-66.948c-.171 1.462-1.533 2.539-2.995 2.368l-2.791 23.837c14.627 1.713 27.911-8.786 29.624-23.414zm-2.995 2.368c-1.615-.19-2.632-1.598-2.467-3.008l-23.837-2.79c-1.719 14.68 8.839 27.917 23.513 29.635zm-2.467-3.008a2.767 2.767 0 0 1 3.106-2.455l2.792-23.837c-14.727-1.725-28.011 8.774-29.735 23.501zm3.106-2.455c1.41.165 2.546 1.48 2.356 3.095l23.838 2.791c1.718-14.674-8.722-28.004-23.402-29.723z" mask="url(#j)"/><mask id="k" width="70.709" height="105.126" x="192.704" y="31.602" fill="#000" maskUnits="userSpaceOnUse"><path fill="#fff" d="M192.704 31.602h70.709v105.126h-70.709z"/><path d="m209.68 122.142-3.263-13.748c-.095-.182-.1-.458-.103-.642-.023-1.38 1.349-1.863 1.901-1.872l.368-.006c6.255-.103 13.008-3.527 12.912-9.322-.05-3.036-1.752-5.768-6.847-13.413-3.865-5.641-5.606-10.765-5.681-15.272-.24-14.534 16.182-22.995 31.636-23.25 3.588-.06 5.434.278 6.018 2.2l3.444 13.561c.097.275.101.55.104.735.025 1.471-1.346 2.046-1.898 2.055l-.552.01c-5.979.098-11.554 2.399-11.467 7.642.051 3.128 2.423 7.413 6.753 13.322 3.958 5.64 5.699 10.764 5.775 15.363.252 15.27-17.905 24.587-33.818 24.85-.92.015-1.748.029-2.67-.048-1.195.02-2.316-.974-2.612-2.165"/></mask><path fill="#fff" d="m209.68 122.142-11.675 2.772.014.06.015.059zm-3.263-13.748 11.675-2.771-.344-1.45-.688-1.322zm8.231-25.255 9.986-6.655-.043-.065-.044-.064zm31.973-36.322 11.63-2.954-.068-.268-.08-.264zm3.444 13.561-11.631 2.955.133.52.178.508zm-7.06 23.764 9.822-6.893-.07-.1-.073-.1zm-30.713 40.165.997-11.958-.596-.05-.599.01zm9.064-4.936-3.264-13.748-23.351 5.543 3.264 13.748zm-4.296-16.52c.513.986.783 1.855.931 2.434.151.593.222 1.083.259 1.397.066.568.065 1.03.062.872l-23.996.396c0 .025.003.718.096 1.515.078.666.32 2.473 1.362 4.472zm1.252 4.703c.067 4.019-2.162 6.984-4.256 8.49a9.7 9.7 0 0 1-2.606 1.332 10.2 10.2 0 0 1-3.036.503l-.397-23.997c-2.712.045-5.571.95-7.975 2.678-2.912 2.095-5.816 5.991-5.726 11.39zm-9.898 10.325.368-.007-.397-23.996-.368.006zm.368-.007c5.014-.082 10.538-1.455 15.166-4.455 4.736-3.071 9.682-8.783 9.545-17.064l-23.996.397a5.05 5.05 0 0 1 .75-2.712c.393-.623.734-.817.646-.76-.079.051-.371.213-.896.361a6.5 6.5 0 0 1-1.612.237zm24.711-21.519c-.067-4.09-1.358-7.437-2.924-10.394-1.413-2.668-3.496-5.815-5.935-9.475l-19.971 13.31c2.656 3.985 3.971 6.026 4.695 7.395.572 1.079.156.616.139-.44zm-8.946-19.998c-2.942-4.292-3.556-7.161-3.581-8.687l-23.997.397c.124 7.49 2.991 14.868 7.781 21.857zm-3.581-8.687c-.034-2.035.897-4.359 4.543-6.765 3.802-2.508 9.459-4.192 15.293-4.288l-.397-23.997c-9.62.16-19.901 2.834-28.114 8.253-8.369 5.522-15.529 14.695-15.322 27.194zm19.836-11.053a15 15 0 0 1 1.243.014c.174.014-.26.001-.993-.235-.805-.26-2.148-.85-3.457-2.115a9.4 9.4 0 0 1-2.457-3.975l22.965-6.974c-.652-2.144-1.842-4.386-3.821-6.3-1.931-1.869-4.069-2.899-5.857-3.476-3.092-.998-6.29-.964-8.02-.936zm-5.812-6.843 3.444 13.56 23.262-5.908-3.445-13.56zm3.755 14.589a10.2 10.2 0 0 1-.524-2.298c-.052-.48-.052-.865-.05-.752l23.997-.397c-.002-.09.037-2.186-.783-4.518zm-.574-3.05c-.059-3.569 1.77-6.384 3.742-7.971a9.7 9.7 0 0 1 2.629-1.507 10.4 10.4 0 0 1 3.531-.663l.396 23.997c3.209-.053 6.218-1.3 8.49-3.129 2.79-2.244 5.292-6.083 5.209-11.124zm9.902-10.141-.552.01.396 23.996.552-.01zm-.552.01c-4.19.068-9.333.885-13.858 3.525-5.025 2.932-9.54 8.45-9.41 16.313l23.997-.396c.016.95-.255 2.135-.943 3.221-.63.997-1.321 1.459-1.549 1.591-.211.124-.153.046.31-.06a9.2 9.2 0 0 1 1.849-.198zm-23.268 19.838c.071 4.288 1.642 8.095 3.116 10.941 1.557 3.004 3.648 6.125 5.957 9.276l19.358-14.186c-2.021-2.758-3.281-4.734-4.006-6.132-.806-1.556-.447-1.455-.428-.295zm8.929 20.018c2.961 4.218 3.573 7.054 3.599 8.667l23.997-.396c-.125-7.586-2.996-14.998-7.951-22.058zm3.599 8.667c.037 2.202-1.102 4.976-5.44 7.827-4.392 2.888-10.639 4.729-16.578 4.827l.397 23.997c9.975-.165 20.763-3.114 29.365-8.769 8.656-5.69 16.469-15.211 16.253-28.278zm-22.018 12.654c-.986.016-1.237.012-1.474-.008l-1.993 23.917c1.606.134 3.011.102 3.864.088zm-2.669-.048a9.5 9.5 0 0 1 6.307 2.21 9 9 0 0 1 2.926 4.732l-23.293 5.782c1.404 5.659 6.745 11.4 14.457 11.273z" mask="url(#k)"/><mask id="l" width="97.836" height="94.015" x="113.795" y="43.947" fill="#000" maskUnits="userSpaceOnUse"><path fill="#fff" d="M113.795 43.947h97.836v94.015h-97.836z"/><path d="M197.611 92.478c-.918 21.04-22.795 31.868-38.117 31.199-17.587-.768-32.461-14.173-31.631-33.163.97-22.227 18.09-33.046 37.08-32.217 23.845 1.04 33.281 20.155 32.668 34.181m-34.628 10.704c7.661.334 11.387-5.773 11.656-11.923.089-2.05.115-12.535-10.891-13.016-9.063-.395-11.987 7.153-12.199 12.008-.325 7.445 5.284 12.662 11.434 12.931"/></mask><path fill="#fff" d="M185.623 91.955c-.262 6.006-3.4 10.825-8.554 14.435-5.394 3.779-12.101 5.515-17.051 5.299l-1.047 23.977c10.371.453 22.263-2.891 31.868-9.619 9.844-6.896 18.104-18.011 18.761-33.045zm-25.605 19.734c-11.958-.522-20.665-9.233-20.167-20.652l-23.977-1.047c-1.16 26.561 19.88 44.662 43.097 45.676zm-20.167-20.652c.344-7.87 3.381-12.802 7.257-15.88 4.111-3.264 10.147-5.185 17.312-4.872l1.047-23.977c-11.826-.516-23.844 2.559-33.283 10.054-9.675 7.681-15.683 19.271-16.31 33.628zm24.569-20.752c8.457.37 13.524 3.762 16.613 7.672 3.351 4.242 4.78 9.651 4.59 13.998l23.977 1.047c.423-9.68-2.561-20.842-9.735-29.923-7.437-9.414-19.01-16.099-34.398-16.77zm-1.96 44.885c7.513.329 13.924-2.656 18.253-7.73 4.022-4.715 5.69-10.53 5.914-15.658l-23.977-1.046a3.7 3.7 0 0 1-.181 1.025c-.083.233-.127.234-.015.103.059-.07.155-.167.294-.272.142-.106.302-.2.469-.273.168-.073.301-.106.377-.12.072-.012.051 0-.087-.006zm24.167-23.388c.069-1.568.207-7.057-2.381-12.655-1.38-2.985-3.642-6.23-7.251-8.76-3.654-2.563-7.995-3.906-12.724-4.112l-1.046 23.977c.422.019.561.074.498.054a2 2 0 0 1-.507-.27 2.7 2.7 0 0 1-.565-.528 1.6 1.6 0 0 1-.189-.29c-.006-.01.021.045.057.183.035.137.068.31.093.51.051.415.042.752.038.844zm-22.356-25.527c-8.5-.371-15.204 3.211-19.434 8.682-3.788 4.897-5.094 10.591-5.277 14.79l23.977 1.047c.004-.081.015-.21.043-.37.028-.158.067-.314.112-.456.046-.143.091-.245.122-.307.031-.061.039-.063.007-.022a1.5 1.5 0 0 1-.235.235 2 2 0 0 1-.443.28 1.4 1.4 0 0 1-.298.106c-.02.004.095-.02.38-.008zM139.56 89.727c-.626 14.342 10.408 24.898 22.9 25.443l1.047-23.977c.075.004.106.02.102.018a.1.1 0 0 1-.024-.019c-.003-.002-.006-.005-.013-.023a.6.6 0 0 1-.023-.097 1.6 1.6 0 0 1-.012-.298z" mask="url(#l)"/><mask id="m" width="138.356" height="148.263" x=".038" y="-.192" fill="#000" maskUnits="userSpaceOnUse"><path fill="#fff" d="M.038-.192h138.356v148.263H.038z"/><path d="m113.992 86.125 10.673 18.662c.569.975.998 1.951 1.007 2.931.012 1.26-.536 2.525-2.062 4.079-15.257 15.542-32.972 22.567-49.771 22.722-32.06.297-60.566-24.08-60.896-59.638-.393-42.418 31.21-61.752 64.388-62.06 12.46-.115 24.246 2.716 32.838 8.237.986.69 1.7 2.224 1.713 3.624.004.42.007.7-.129 1.121l-7.635 22.192c-.41 1.124-1.798 2.397-3.338 2.41-.56.006-1.121-.129-1.544-.405-4.365-2.76-12.227-5.067-20.207-4.993-17.639.164-27.757 11.178-27.6 28.257.154 16.52 12.702 25.924 27.401 25.787 9.8-.09 20.819-4.533 29.552-13.994.554-.565 1.392-.853 2.092-.86 1.4-.012 2.947.813 3.518 1.928"/></mask><path fill="#fff" d="m113.992 86.125-10.683 5.466.127.249.139.243zm10.673 18.662-10.416 5.958.026.046.027.046zm-1.055 7.01 8.564 8.406zm-13.441-90.74 6.884-9.828-.196-.138-.201-.129zm1.584 4.746 11.347 3.904.037-.107.035-.108zm-7.635 22.192 11.275 4.109.037-.102.035-.103zM99.236 50l6.564-10.046-.076-.049-.076-.048zm9.146 35.057-8.564-8.406-.13.131-.124.136zm-4.807 7.026 10.674 18.662 20.833-11.916-10.674-18.662zm10.727 18.754c.091.157-.032-.027-.186-.446a7.7 7.7 0 0 1-.443-2.562l23.999-.222c-.039-4.232-1.827-7.471-2.644-8.87zm-.629-3.008a7.8 7.8 0 0 1 .762-3.449c.404-.825.775-1.156.612-.989l17.127 16.812c2.821-2.874 5.549-7.032 5.498-12.596zm1.374-4.438c-13.19 13.436-27.928 19.005-41.32 19.129l.223 23.999c20.206-.188 40.9-8.668 58.224-26.316zm-41.32 19.129c-25.93.24-48.52-19.307-48.784-47.75l-24 .222c.396 42.673 34.82 71.881 73.007 71.527zM24.943 74.77c-.166-17.904 6.277-29.851 15.366-37.558 9.402-7.972 22.684-12.257 37.133-12.39l-.222-24c-18.73.174-37.838 5.71-52.433 18.085C9.878 31.55.717 50.477.944 74.992zm52.5-49.949c10.792-.1 20.112 2.395 26.239 6.332l12.974-20.19C105.6 3.857 91.346.69 77.22.822zm25.842 6.066c-1.667-1.168-2.43-2.49-2.752-3.172a6.9 6.9 0 0 1-.65-2.922l23.999-.222a17.1 17.1 0 0 0-1.634-7.078c-.929-1.972-2.542-4.406-5.195-6.264zm-3.402-6.094c.001.137 0 .085.001.008a9.475 9.475 0 0 1 .45-2.686l22.838 7.377c.78-2.414.715-4.39.71-4.921zm.522-2.894-7.634 22.192 22.694 7.808 7.635-22.192zm-7.561 21.987c.69-1.894 1.776-3.052 2.652-3.734.936-.73 2.686-1.723 5.173-1.746l.222 24c4.027-.038 7.241-1.674 9.359-3.325 2.057-1.604 4.043-3.959 5.143-6.977zm7.825-5.48c1.22-.01 3.129.24 5.131 1.548L92.673 60.046c2.847 1.86 5.878 2.381 8.218 2.36zm4.979 1.45c-6.625-4.187-16.837-6.94-26.73-6.848l.222 23.999c2.84-.027 5.747.377 8.328 1.048 2.66.692 4.49 1.54 5.357 2.089zm-26.73-6.848c-11.337.105-21.618 3.768-29.017 11.472-7.36 7.663-10.572 17.973-10.47 28.895l23.998-.222c-.057-6.157 1.712-9.894 3.781-12.048 2.03-2.114 5.629-4.04 11.93-4.098zM39.43 73.375c.107 11.497 4.637 21.271 12.313 28.033 7.513 6.618 17.314 9.734 27.198 9.643l-.222-24c-4.816.046-8.637-1.472-11.112-3.652-2.311-2.036-4.131-5.223-4.178-10.246zm39.511 37.676c13.269-.123 27.39-6.08 38.259-17.855L99.564 76.918c-6.597 7.147-14.515 10.075-20.845 10.134zm38.004-17.588a9.2 9.2 0 0 1-3.196 2.129 8.9 8.9 0 0 1-3.164.605l-.222-23.999c-3.368.031-7.424 1.274-10.545 4.453zm-6.36 2.734c-1.577.015-2.834-.406-3.771-.915-.867-.471-2.404-1.54-3.505-3.691l21.366-10.932c-1.672-3.267-4.268-5.305-6.401-6.464-2.204-1.198-4.934-2.024-7.911-1.997z" mask="url(#m)"/><mask id="n" width="428" height="124" x="12" y="12" maskUnits="userSpaceOnUse" style="mask-type:alpha"><path fill="#D63965" d="m417.451 119.166-1.117.281c-21.132 5.322-35.378-6.435-38.942-20.585-3.352-13.313 2.534-29.645 23.759-34.99 23.087-5.814 29.292 14.502 30.066 17.574 1.078 4.282.2 8.265-4.823 11.51-4.001 2.592-10.632 5.35-15.426 6.756-1.489.375-2.119-.16-2.772-1.183-1.891-2.79-5.184-8.396-5.278-8.769-.257-1.024.37-1.677 1.51-2.26 4.559-2.337 5.164-2.687 4.836-3.99-.211-.838-2.73-3.372-6.64-2.387-4.468 1.125-7.207 5.973-5.754 11.745 1.665 6.61 8.381 12.838 20.018 9.907.651-.164 1.396-.352 2.024-.609l.186-.047c1.304-.328 3.097.111 3.496 1.694.234.931-.592 7.871-1.191 11.388-.37 1.677-1.252 3.285-3.952 3.965M365.698 93.619l-.199 3.161c-.337 5.366.637 9.755 4.336 13.643.545.516 1.443 1.534 1.377 2.588-.036.575-.36 1.132-1.061 1.568-.012.192-9.925 6.398-9.925 6.398-1.006.706-1.983.933-2.845.879-1.724-.108-16.735-6.15-15.662-23.205l.205-3.257c.633-10.06-3.989-14.583-10.959-15.407l-4.008 34.665c-.06.958-.976 1.766-1.935 1.706l-.191-.012-19.102-2.163c-1.144-.168-1.856-1.079-1.784-2.229l5.721-49.659c.162-1.047 1.078-1.855 2.037-1.795l.191.012 10.695 1.25c3.785-.532 7.354-.692 10.803-.475 19.45 1.223 33.457 14.032 32.306 32.332M282.618 121.364l-19.98-1.333-.199-.023c-1.093-.128-1.783-1.115-1.754-2.219l3.181-48.66c.139-1.192 1.039-1.993 2.242-1.953l19.981 1.333.198.023c.993.117 1.783 1.115 1.666 2.108l-3.192 48.76-.023.199c-.116.993-1.115 1.782-2.12 1.765m9.053-68.714c-.942 8.046-8.265 13.833-16.31 12.891-8.144-.953-13.932-8.276-12.99-16.321a14.767 14.767 0 0 1 16.421-12.979c8.045.942 13.832 8.265 12.879 16.41M209.68 122.142l-3.263-13.748c-.095-.182-.1-.458-.103-.642-.023-1.38 1.349-1.863 1.901-1.872l.368-.006c6.255-.104 13.008-3.528 12.912-9.323-.05-3.035-1.752-5.768-6.847-13.413-3.865-5.64-5.606-10.764-5.681-15.272-.24-14.534 16.182-22.994 31.636-23.25 3.588-.059 5.434.279 6.018 2.201l3.444 13.561c.097.275.101.55.104.734.025 1.472-1.346 2.047-1.898 2.056l-.552.01c-5.979.098-11.554 2.398-11.467 7.642.051 3.127 2.423 7.413 6.753 13.322 3.958 5.64 5.699 10.763 5.775 15.363.252 15.27-17.905 24.587-33.818 24.85-.92.015-1.748.029-2.67-.048-1.195.02-2.316-.974-2.612-2.165M197.612 92.478c-.919 21.04-22.796 31.868-38.118 31.199-17.587-.768-32.46-14.173-31.631-33.163.97-22.227 18.091-33.046 37.08-32.217 23.846 1.04 33.281 20.155 32.669 34.181m-34.628 10.704c7.66.334 11.386-5.773 11.655-11.923.089-2.05.115-12.535-10.891-13.016-9.063-.395-11.987 7.153-12.199 12.008-.325 7.445 5.285 12.662 11.435 12.931M113.992 86.125l10.673 18.662c.569.975.998 1.951 1.007 2.931.012 1.26-.536 2.525-2.062 4.079-15.257 15.542-32.972 22.567-49.771 22.722-32.06.297-60.566-24.08-60.896-59.638-.393-42.418 31.21-61.752 64.388-62.06 12.46-.115 24.246 2.716 32.838 8.237.986.69 1.7 2.224 1.713 3.624.004.42.007.7-.129 1.121l-7.635 22.192c-.41 1.124-1.798 2.397-3.338 2.41-.56.006-1.121-.129-1.544-.405-4.365-2.76-12.227-5.067-20.207-4.993-17.639.164-27.757 11.178-27.6 28.257.154 16.52 12.702 25.924 27.401 25.787 9.8-.09 20.819-4.533 29.552-13.994.554-.565 1.392-.853 2.092-.86 1.4-.012 2.947.813 3.518 1.928"/></mask><g mask="url(#n)"><path fill="url(#o)" d="m-3.112-8.373 461.56 20.152-7.066 161.846-461.56-20.152z"/></g><mask id="r" width="428" height="124" x="12" y="12" maskUnits="userSpaceOnUse" style="mask-type:alpha"><mask id="p" width="428" height="124" x="12" y="12" maskUnits="userSpaceOnUse" style="mask-type:alpha"><path fill="#D63965" d="m417.451 119.166-1.117.281c-21.132 5.322-35.378-6.435-38.942-20.585-3.352-13.313 2.534-29.645 23.759-34.99 23.087-5.814 29.292 14.502 30.066 17.574 1.078 4.282.2 8.265-4.823 11.51-4.001 2.592-10.632 5.35-15.426 6.756-1.489.375-2.119-.16-2.772-1.183-1.891-2.79-5.184-8.396-5.278-8.769-.257-1.024.37-1.677 1.51-2.26 4.559-2.337 5.164-2.687 4.836-3.99-.211-.838-2.73-3.372-6.64-2.387-4.468 1.125-7.207 5.973-5.754 11.745 1.665 6.61 8.381 12.838 20.018 9.907.651-.164 1.396-.352 2.024-.609l.186-.047c1.304-.328 3.097.111 3.496 1.694.234.931-.592 7.871-1.191 11.388-.37 1.677-1.252 3.285-3.952 3.965M365.698 93.619l-.199 3.161c-.337 5.366.637 9.755 4.336 13.643.545.516 1.443 1.534 1.377 2.588-.036.575-.36 1.132-1.061 1.568-.012.192-9.925 6.398-9.925 6.398-1.006.706-1.983.933-2.845.879-1.724-.108-16.735-6.15-15.662-23.205l.205-3.257c.633-10.06-3.989-14.583-10.959-15.407l-4.008 34.665c-.06.958-.976 1.766-1.935 1.706l-.191-.012-19.102-2.163c-1.144-.168-1.856-1.079-1.784-2.229l5.721-49.659c.162-1.047 1.078-1.855 2.037-1.795l.191.012 10.695 1.25c3.785-.532 7.354-.692 10.803-.475 19.45 1.223 33.457 14.032 32.306 32.332M282.618 121.364l-19.98-1.333-.199-.023c-1.093-.128-1.783-1.115-1.754-2.219l3.181-48.66c.139-1.192 1.039-1.993 2.242-1.953l19.981 1.333.198.023c.993.117 1.783 1.115 1.666 2.108l-3.192 48.76-.023.199c-.116.993-1.115 1.782-2.12 1.765m9.053-68.714c-.942 8.046-8.265 13.833-16.31 12.891-8.144-.953-13.932-8.276-12.99-16.321a14.767 14.767 0 0 1 16.421-12.979c8.045.942 13.832 8.265 12.879 16.41M209.68 122.142l-3.263-13.748c-.095-.182-.1-.458-.103-.642-.023-1.38 1.349-1.863 1.901-1.872l.368-.006c6.255-.104 13.008-3.528 12.912-9.323-.05-3.035-1.752-5.768-6.847-13.413-3.865-5.64-5.606-10.764-5.681-15.272-.24-14.534 16.182-22.994 31.636-23.25 3.588-.059 5.434.279 6.018 2.201l3.444 13.561c.097.275.101.55.104.734.025 1.472-1.346 2.047-1.898 2.056l-.552.01c-5.979.098-11.554 2.398-11.467 7.642.051 3.127 2.423 7.413 6.753 13.322 3.958 5.64 5.699 10.763 5.775 15.363.252 15.27-17.905 24.587-33.818 24.85-.92.015-1.748.029-2.67-.048-1.195.02-2.316-.974-2.612-2.165M197.612 92.478c-.919 21.04-22.796 31.868-38.118 31.199-17.587-.768-32.46-14.173-31.631-33.163.97-22.227 18.091-33.046 37.08-32.217 23.846 1.04 33.281 20.155 32.669 34.181m-34.628 10.704c7.66.334 11.386-5.773 11.655-11.923.089-2.05.115-12.535-10.891-13.016-9.063-.395-11.987 7.153-12.199 12.008-.325 7.445 5.285 12.662 11.435 12.931M113.992 86.125l10.673 18.662c.569.975.998 1.951 1.007 2.931.012 1.26-.536 2.525-2.062 4.079-15.257 15.542-32.972 22.567-49.771 22.722-32.06.297-60.566-24.08-60.896-59.638-.393-42.418 31.21-61.752 64.388-62.06 12.46-.115 24.246 2.716 32.838 8.237.986.69 1.7 2.224 1.713 3.624.004.42.007.7-.129 1.121l-7.635 22.192c-.41 1.124-1.798 2.397-3.338 2.41-.56.006-1.121-.129-1.544-.405-4.365-2.76-12.227-5.067-20.207-4.993-17.639.164-27.757 11.178-27.6 28.257.154 16.52 12.702 25.924 27.401 25.787 9.8-.09 20.819-4.533 29.552-13.994.554-.565 1.392-.853 2.092-.86 1.4-.012 2.947.813 3.518 1.928"/></mask><g mask="url(#p)"><path fill="url(#q)" d="m8.484 1.142 439.581 19.192-5.889 134.872-439.58-19.193z"/></g></mask><g fill="#FF87A8" mask="url(#r)"><path fill-opacity=".35" d="M-8.862-37.151s-10.487 102.64-6.6 105.312c.628.432 63.164-36.78 71.31-39.927 8.145-3.148 29.083-12.744 50.757-4.791 21.673 7.953 9.7 41.462 57.306 51.548 26.265 5.565 52.888-19.21 82.921 3.62 30.032 22.833 71.761-15.884 90.828-5.543s51.063-11.784 74.929 3.272c23.866 15.055 48.319 12.641 49.17-6.862l1.462-33.467 8.675-45.666z"/><path fill-opacity=".25" d="M437.999 172.54s5.679-47.609 2.182-49.986c-.564-.384-37.089-12.096-54.073-12.838s-14.598 13.376-47.955-2.093c-33.357-15.47-30.101 1.655-63.896 7.687-33.795 6.031-60.442-2.639-79.709 3.059s-53.511-12.371-67.087-10.937c-13.575 1.435-27.238 16.328-68.199 14.539S5.277 88.849-6.992 69.031c-21.973-35.492 10.84 19.278 9.56 35.597l-1.346 30.824-1.789 40.961z"/></g><g clip-path="url(#s)"><path fill="#FFA0B7" stroke="#fff" stroke-width="5" d="M360.296 58.41a14.2 14.2 0 0 0 3.227-1.478q-.02 1.346.237 2.69a12.9 12.9 0 0 0 2.147 5.067 12.7 12.7 0 0 0 4.418 4.035l2.106 1.166 1.245-2.06 1.101-1.823 1.664.721 2.078.902 1.102-1.98c1.128-2.03 1.682-4.2 1.608-6.472v-.018a13.5 13.5 0 0 0-.423-2.833q1.35.361 2.772.447a14.1 14.1 0 0 0 5.567-.789h.002a13.45 13.45 0 0 0 5.105-3.223l1.757-1.763-1.755-1.765-1.405-1.414 1.115-1.36 1.5-1.831-1.746-1.598a12.56 12.56 0 0 0-5.921-3.054h-.005a13.7 13.7 0 0 0-2.704-.295q.752-1.219 1.237-2.592c.624-1.77.885-3.597.776-5.463l-.001-.026-.002-.026a12.86 12.86 0 0 0-1.81-5.661l-1.234-2.058-2.106 1.149-1.881 1.025-1.039-1.41-1.373-1.866-1.964 1.227c-1.964 1.226-3.515 2.847-4.604 4.85l-.004.006a13 13 0 0 0-.344.684q-.13-.158-.266-.313a13.26 13.26 0 0 0-4.487-3.326l-.002-.001a13.8 13.8 0 0 0-5.855-1.256l-2.436.009-.055 2.435-.047 2.058-1.836.192-2.315.24.075 2.327c.075 2.318.722 4.463 1.961 6.376a13.6 13.6 0 0 0 2.265 2.66q-1.153.33-2.253.862a14.15 14.15 0 0 0-4.459 3.367l-.018.02-.017.02a13.3 13.3 0 0 0-2.787 5.361l-.613 2.375 2.363.658 2.014.561-.286 1.687-.397 2.347 2.326.511c2.261.498 4.504.41 6.682-.28Z"/></g><defs><linearGradient id="o" x1="315.629" x2="308.562" y1="13.972" y2="175.818" gradientUnits="userSpaceOnUse"><stop stop-color="#D63965"/><stop offset="1" stop-color="#E76E78"/></linearGradient><linearGradient id="q" x1="312.09" x2="306.201" y1="21.421" y2="156.293" gradientUnits="userSpaceOnUse"><stop stop-color="#D63965"/><stop offset="1" stop-color="#E76E78"/></linearGradient><clipPath id="g"><path fill="#fff" d="M358.927 89.16 338 32.926 394.232 12l20.927 56.232z"/></clipPath><clipPath id="s"><path fill="#fff" d="M352.927 83.16 332 26.926 388.232 6l20.927 56.232z"/></clipPath></defs></svg>